<mxfile host="app.diagrams.net" modified="2021-03-18T10:14:17.263Z" agent="5.0 (Windows)" etag="NO9IlubSfmXtDQOWFvKp" version="14.4.9" type="github">
  <diagram id="XOwMrZRLROqOZSJxTRkj" name="Page-1">
    <mxGraphModel dx="782" dy="745" grid="1" gridSize="10" guides="1" tooltips="1" connect="1" arrows="1" fold="1" page="1" pageScale="1" pageWidth="827" pageHeight="1169" math="0" shadow="0">
      <root>
        <mxCell id="0" />
        <mxCell id="1" parent="0" />
        <mxCell id="UrjzjIE9Bx_cVqQ6ayJr-6" style="edgeStyle=orthogonalEdgeStyle;rounded=0;orthogonalLoop=1;jettySize=auto;html=1;exitX=0.5;exitY=0.5;exitDx=0;exitDy=0;exitPerimeter=0;entryX=0;entryY=0.5;entryDx=0;entryDy=0;" parent="1" source="UrjzjIE9Bx_cVqQ6ayJr-1" target="UrjzjIE9Bx_cVqQ6ayJr-5" edge="1">
          <mxGeometry relative="1" as="geometry" />
        </mxCell>
        <mxCell id="UrjzjIE9Bx_cVqQ6ayJr-8" style="edgeStyle=orthogonalEdgeStyle;rounded=0;orthogonalLoop=1;jettySize=auto;html=1;exitX=0.5;exitY=0.5;exitDx=0;exitDy=0;exitPerimeter=0;entryX=0;entryY=0.5;entryDx=0;entryDy=0;" parent="1" source="UrjzjIE9Bx_cVqQ6ayJr-1" target="UrjzjIE9Bx_cVqQ6ayJr-7" edge="1">
          <mxGeometry relative="1" as="geometry" />
        </mxCell>
        <mxCell id="UrjzjIE9Bx_cVqQ6ayJr-10" style="edgeStyle=orthogonalEdgeStyle;rounded=0;orthogonalLoop=1;jettySize=auto;html=1;exitX=0.5;exitY=0.5;exitDx=0;exitDy=0;exitPerimeter=0;entryX=0;entryY=0.5;entryDx=0;entryDy=0;" parent="1" source="UrjzjIE9Bx_cVqQ6ayJr-1" target="UrjzjIE9Bx_cVqQ6ayJr-9" edge="1">
          <mxGeometry relative="1" as="geometry" />
        </mxCell>
        <mxCell id="RpiikMhmHXeJFQ6Rec86-1" style="edgeStyle=orthogonalEdgeStyle;rounded=0;orthogonalLoop=1;jettySize=auto;html=1;endArrow=block;endFill=0;" edge="1" parent="1" source="UrjzjIE9Bx_cVqQ6ayJr-1">
          <mxGeometry relative="1" as="geometry">
            <mxPoint x="135" y="150" as="targetPoint" />
          </mxGeometry>
        </mxCell>
        <mxCell id="UrjzjIE9Bx_cVqQ6ayJr-1" value="Admin" style="shape=umlActor;verticalLabelPosition=bottom;verticalAlign=top;html=1;" parent="1" vertex="1">
          <mxGeometry x="120" y="460" width="30" height="60" as="geometry" />
        </mxCell>
        <mxCell id="UrjzjIE9Bx_cVqQ6ayJr-16" style="edgeStyle=orthogonalEdgeStyle;rounded=0;orthogonalLoop=1;jettySize=auto;html=1;exitX=0.5;exitY=0.5;exitDx=0;exitDy=0;exitPerimeter=0;entryX=0;entryY=0.5;entryDx=0;entryDy=0;" parent="1" source="UrjzjIE9Bx_cVqQ6ayJr-2" target="UrjzjIE9Bx_cVqQ6ayJr-12" edge="1">
          <mxGeometry relative="1" as="geometry" />
        </mxCell>
        <mxCell id="UrjzjIE9Bx_cVqQ6ayJr-17" style="edgeStyle=orthogonalEdgeStyle;rounded=0;orthogonalLoop=1;jettySize=auto;html=1;exitX=0.5;exitY=0.5;exitDx=0;exitDy=0;exitPerimeter=0;entryX=0;entryY=0.5;entryDx=0;entryDy=0;" parent="1" source="UrjzjIE9Bx_cVqQ6ayJr-2" target="UrjzjIE9Bx_cVqQ6ayJr-13" edge="1">
          <mxGeometry relative="1" as="geometry" />
        </mxCell>
        <mxCell id="UrjzjIE9Bx_cVqQ6ayJr-18" style="edgeStyle=orthogonalEdgeStyle;rounded=0;orthogonalLoop=1;jettySize=auto;html=1;exitX=0.5;exitY=0.5;exitDx=0;exitDy=0;exitPerimeter=0;entryX=0;entryY=0.5;entryDx=0;entryDy=0;" parent="1" source="UrjzjIE9Bx_cVqQ6ayJr-2" target="UrjzjIE9Bx_cVqQ6ayJr-14" edge="1">
          <mxGeometry relative="1" as="geometry" />
        </mxCell>
        <mxCell id="UrjzjIE9Bx_cVqQ6ayJr-19" style="edgeStyle=orthogonalEdgeStyle;rounded=0;orthogonalLoop=1;jettySize=auto;html=1;exitX=0.5;exitY=0.5;exitDx=0;exitDy=0;exitPerimeter=0;entryX=0;entryY=0.5;entryDx=0;entryDy=0;" parent="1" source="UrjzjIE9Bx_cVqQ6ayJr-2" target="UrjzjIE9Bx_cVqQ6ayJr-15" edge="1">
          <mxGeometry relative="1" as="geometry" />
        </mxCell>
        <mxCell id="UrjzjIE9Bx_cVqQ6ayJr-2" value="User" style="shape=umlActor;verticalLabelPosition=bottom;verticalAlign=top;html=1;" parent="1" vertex="1">
          <mxGeometry x="120" y="60" width="30" height="60" as="geometry" />
        </mxCell>
        <mxCell id="UrjzjIE9Bx_cVqQ6ayJr-5" value="Добавление новой брони/новых монстров" style="ellipse;whiteSpace=wrap;html=1;" parent="1" vertex="1">
          <mxGeometry x="274" y="380" width="140" height="70" as="geometry" />
        </mxCell>
        <mxCell id="UrjzjIE9Bx_cVqQ6ayJr-7" value="Удаление брони/мостров" style="ellipse;whiteSpace=wrap;html=1;" parent="1" vertex="1">
          <mxGeometry x="274" y="465" width="140" height="70" as="geometry" />
        </mxCell>
        <mxCell id="UrjzjIE9Bx_cVqQ6ayJr-9" value="Изменение данных о монстрах/броне" style="ellipse;whiteSpace=wrap;html=1;" parent="1" vertex="1">
          <mxGeometry x="274" y="555" width="140" height="70" as="geometry" />
        </mxCell>
        <mxCell id="UrjzjIE9Bx_cVqQ6ayJr-12" value="Получить данные о броне" style="ellipse;whiteSpace=wrap;html=1;" parent="1" vertex="1">
          <mxGeometry x="274" y="10" width="140" height="70" as="geometry" />
        </mxCell>
        <mxCell id="UrjzjIE9Bx_cVqQ6ayJr-13" value="Получить данные о монстрах" style="ellipse;whiteSpace=wrap;html=1;" parent="1" vertex="1">
          <mxGeometry x="274" y="250" width="140" height="70" as="geometry" />
        </mxCell>
        <mxCell id="UrjzjIE9Bx_cVqQ6ayJr-14" value="Получить данные о броне определенной цены " style="ellipse;whiteSpace=wrap;html=1;" parent="1" vertex="1">
          <mxGeometry x="274" y="90" width="140" height="70" as="geometry" />
        </mxCell>
        <mxCell id="UrjzjIE9Bx_cVqQ6ayJr-15" value="Получить данные о монстрах в определенном лесу " style="ellipse;whiteSpace=wrap;html=1;" parent="1" vertex="1">
          <mxGeometry x="274" y="170" width="140" height="70" as="geometry" />
        </mxCell>
        <mxCell id="UrjzjIE9Bx_cVqQ6ayJr-20" value="frame" style="shape=umlFrame;whiteSpace=wrap;html=1;" parent="1" vertex="1">
          <mxGeometry x="170" width="380" height="630" as="geometry" />
        </mxCell>
      </root>
    </mxGraphModel>
  </diagram>
</mxfile>
